<mxfile host="app.diagrams.net" modified="2023-10-22T04:01:10.350Z" agent="Mozilla/5.0 (Windows NT 10.0; Win64; x64) AppleWebKit/537.36 (KHTML, like Gecko) Chrome/116.0.0.0 Safari/537.36 OPR/102.0.0.0" version="22.0.0" etag="kDeXUVmqJcgso28_4mRh" type="github">
  <diagram name="Page-1" id="NBs6cgS2KGtrZQNZiXus">
    <mxGraphModel>
      <root>
        <mxCell id="0" />
        <mxCell id="1" parent="0" />
      </root>
    </mxGraphModel>
  </diagram>
</mxfile>
